# xmcd
#
# Track frame offsets: 
#        150
#        18930
#        32797
#        53802
#        76735
#        111475
#        137785
#
# Disc length: 2173 seconds
#
# Revision: 0
# Processed by: cddbd v1.4PL0 Copyright (c) Steve Scherf et al.
# Submitted via: ExactAudioCopy v0.90a11
#
DISCID=54087b07
DTITLE=Wedemeyer, Hayes, and Tarczy - WHAT
DYEAR=1900
DGENRE=
TTITLE0=Liquor Store
TTITLE1=I'm Not Talking
TTITLE2=I'll Pull the Trigger
TTITLE3=Sympathy
TTITLE4=Drugs and Alcohol
TTITLE5=Black Cat Moan
TTITLE6=I'm Ready
EXTD=
EXTT0=
EXTT1=
EXTT2=
EXTT3=
EXTT4=
EXTT5=
EXTT6=
PLAYORDER=
